PathFileType	4	(X/Y/Z)	1H_rest_fast_left.trc
DataRate	CameraRate	NumFrames	NumMarkers	Units	OrigDataRate	OrigDataStartFrame	OrigNumFrames
250.00	250.00	18	18	mm	250.00	1	27614
Frame#	Time	c7	r_should	l_should	clavicle	r_upa	r_elb_l	r_elb_m	r_low	r_wri_l	r_wri_m	r_met	l_upa	l_elb_l	l_elb_m	l_low	l_wri_l	l_wri_m	l_met
	X1	Y1	Z1	X2	Y2	Z2	X3	Y3	Z3	X4	Y4	Z4	X5	Y5	Z5	X6	Y6	Z6	X7	Y7	Z7	X8	Y8	Z8	X9	Y9	Z9	X10	Y10	Z10	X11	Y11	Z11	X12	Y12	Z12	X13	Y13	Z13	X14	Y14	Z14	X15	Y15	Z15	X16	Y16	Z16	X17	Y17	Z17	X18	Y18	Z18
1	0.00000	659.89246	1420.63318	230.27844	700.48376	1368.13770	391.83292	721.12683	1357.68884	73.19479	776.88708	1270.31042	236.46445	680.62341	1163.91260	470.50327	669.45667	1076.12878	494.56012	620.15369	1041.58203	426.31302	716.95972	899.26978	487.31027	741.26868	833.59656	460.88400	675.49933	813.19000	488.11212	779.09039	762.53937	491.88321	741.01520	1164.04663	18.52791	759.25897	1053.22437	23.09008	680.67609	1020.79437	67.20942	772.88916	879.45898	23.56884	780.79224	802.11853	51.59876	719.30023	790.28662	15.33223	806.87976	717.99609	30.88251
2	0.00400	659.93781	1420.66211	230.25162	700.59338	1368.14099	391.78842	721.10968	1357.63318	73.17213	776.86053	1270.26489	236.40424	680.72955	1163.94653	470.50208	669.52643	1076.16431	494.57550	620.16107	1041.64331	426.36215	716.89880	899.24530	487.23779	741.13727	833.56714	460.78577	675.41113	813.26331	488.11734	778.95831	762.46729	491.74210	741.14709	1163.99316	18.59882	759.38239	1053.19385	23.14598	680.77502	1020.75793	67.15591	773.08307	879.43921	23.64577	780.98041	802.10516	51.70428	719.58545	790.26923	15.34115	807.25702	718.08496	30.99414
3	0.00800	659.98077	1420.69519	230.20882	700.70178	1368.15295	391.74240	721.09436	1357.58813	73.14066	776.83380	1270.22571	236.34244	680.82288	1163.96802	470.47903	669.58746	1076.18469	494.56839	620.14899	1041.70105	426.39246	716.84283	899.22717	487.16925	741.01569	833.54523	460.69214	675.31311	813.31036	488.07632	778.81604	762.38123	491.58823	741.25977	1163.95618	18.64167	759.50903	1053.17664	23.17710	680.83734	1020.71594	67.04454	773.29224	879.43103	23.71708	781.18451	802.10626	51.81042	719.86688	790.23193	15.31419	807.66168	718.18134	31.12377
4	0.01200	660.02045	1420.73181	230.15390	700.81110	1368.16736	391.69528	721.08160	1357.54602	73.10310	776.81238	1270.19409	236.27415	680.90430	1163.97205	470.42593	669.63959	1076.19177	494.54453	620.12653	1041.73450	426.40625	716.79010	899.21057	487.09637	740.90155	833.53149	460.59592	675.20599	813.32074	487.99246	778.65369	762.26489	491.42267	741.35132	1163.92444	18.65277	759.63574	1053.16565	23.18490	680.86096	1020.66113	66.88010	773.51581	879.43182	23.78482	781.41095	802.11890	51.91322	720.14874	790.17987	15.27306	808.08234	718.28369	31.25991
5	0.01600	660.05634	1420.76013	230.10278	700.91370	1368.18188	391.64310	721.06348	1357.49158	73.06680	776.78870	1270.16565	236.20570	680.98071	1163.95959	470.36023	669.68665	1076.18579	494.50739	620.09595	1041.75220	426.40680	716.74286	899.19342	487.02316	740.78729	833.50378	460.49286	675.09442	813.31049	487.90164	778.46008	762.09979	491.26715	741.42230	1163.89343	18.63974	759.75787	1053.14648	23.16852	680.87482	1020.59076	66.70528	773.74506	879.43231	23.84976	781.65326	802.13403	52.01423	720.44446	790.10950	15.22806	808.51178	718.38599	31.40647
6	0.02000	660.08569	1420.77405	230.06636	701.00964	1368.18835	391.58963	721.01379	1357.65857	72.87075	776.76373	1270.13562	236.14040	681.05646	1163.94922	470.30997	669.73853	1076.17432	494.47211	620.06989	1041.76294	426.41690	716.69550	899.17615	486.95032	740.67255	833.47150	460.39822	674.98157	813.29712	487.84247	778.25098	761.91333	491.12988	741.47357	1163.86523	18.60246	759.87439	1053.12073	23.14011	680.90564	1020.50745	66.53648	773.97980	879.43060	23.90891	781.90015	802.14441	52.11043	720.75964	790.03137	15.20087	808.93579	718.48273	31.56015
7	0.02400	660.11023	1420.77747	230.03787	701.09332	1368.18726	391.54529	720.92261	1358.10217	72.48232	776.72723	1270.10144	236.07941	681.14087	1163.95203	470.28162	669.80524	1076.17102	494.45044	620.05206	1041.78430	426.45734	716.64966	899.15222	486.88306	740.55829	833.43488	460.31152	674.87421	813.29865	487.83163	778.05768	761.74939	491.00879	741.50500	1163.83337	18.53815	759.98816	1053.09583	23.09370	680.96832	1020.42865	66.40221	774.22461	879.42944	23.96749	782.15100	802.15552	52.20762	721.08118	789.96008	15.19796	809.35620	718.56940	31.72016
8	0.02800	660.12653	1420.77710	230.00545	701.16510	1368.18738	391.50494	720.86670	1358.16406	72.34993	776.67609	1270.07080	236.02208	681.24310	1163.97925	470.27414	669.89075	1076.18884	494.44299	620.04608	1041.82556	426.51495	716.59991	899.12958	486.82916	740.43561	833.39288	460.24603	674.76990	813.32007	487.86063	777.87262	761.60120	490.90985	741.51746	1163.79919	18.45776	760.09125	1053.06567	23.03477	681.05865	1020.36835	66.28406	774.47510	879.43170	24.02913	782.40869	802.16980	52.30848	721.42505	789.90668	15.21602	809.78699	718.65991	31.88441
9	0.03200	660.14313	1420.77502	229.97986	701.23645	1368.18616	391.45584	720.82434	1358.13037	72.27768	776.62384	1270.03320	235.96770	681.35651	1164.01453	470.27774	669.99469	1076.21460	494.44336	620.05103	1041.87793	426.57880	716.54620	899.10016	486.78116	740.30908	833.33862	460.18613	674.67926	813.36804	487.92529	777.68921	761.46045	490.82953	741.52234	1163.76562	18.35999	760.18988	1053.03577	22.95973	681.19128	1020.31610	66.17356	774.72589	879.42731	24.08713	782.66571	802.18115	52.41770	721.79980	789.86658	15.24551	810.23022	718.75549	32.05027
10	0.03600	660.16388	1420.78284	229.95065	701.31097	1368.19128	391.41010	720.79193	1358.07703	72.22012	776.56781	1269.98608	235.91379	681.46753	1164.04675	470.26849	670.09412	1076.24756	494.43994	620.06970	1041.93323	426.62891	716.49384	899.06348	486.73846	740.18060	833.28137	460.13068	674.59509	813.43304	487.99429	777.51410	761.31976	490.75293	741.51843	1163.73328	18.24053	760.29193	1053.00439	22.87337	681.32452	1020.27454	66.04172	774.97729	879.41302	24.14368	782.92810	802.19147	52.52758	722.19720	789.83063	15.25514	810.69202	718.86212	32.22960
11	0.04000	660.18518	1420.80286	229.90901	701.38031	1368.20459	391.35831	720.76874	1358.02490	72.16357	776.51422	1269.94446	235.85873	681.57245	1164.07495	470.23010	670.18896	1076.27869	494.41449	620.08142	1041.97888	426.65698	716.44684	899.02948	486.69958	740.06097	833.23346	460.08432	674.50836	813.49042	488.02435	777.33984	761.18048	490.67081	741.51312	1163.70618	18.10382	760.39813	1052.97925	22.77545	681.43213	1020.23541	65.88076	775.22736	879.40869	24.19350	783.19751	802.20856	52.63708	722.58710	789.79480	15.23741	811.17761	718.97998	32.41983
12	0.04400	660.20129	1420.83875	229.84169	701.43561	1368.22729	391.29803	720.75488	1357.97546	72.10041	776.46399	1269.91284	235.81371	681.65875	1164.08862	470.16507	670.26508	1076.29407	494.36444	620.07111	1042.01892	426.66162	716.40088	899.00665	486.66382	739.95105	833.18732	460.04233	674.40936	813.52209	487.99899	777.14795	761.03027	490.58109	741.51196	1163.69275	17.95361	760.50293	1052.96021	22.67690	681.50073	1020.18500	65.67961	775.48053	879.40979	24.23043	783.48511	802.23682	52.74531	722.95581	789.75348	15.18891	811.67163	719.10510	32.62974
13	0.04800	660.21326	1420.87170	229.77203	701.48218	1368.25818	391.23578	720.73828	1357.92224	72.03814	776.41907	1269.88513	235.76689	681.72870	1164.09021	470.07941	670.31989	1076.29602	494.29822	620.04987	1042.03748	426.65350	716.35962	898.98914	486.62872	739.84906	833.15356	460.00446	674.29944	813.52606	487.93295	776.94830	760.86511	490.47733	741.51141	1163.67896	17.80018	760.60614	1052.93616	22.56647	681.53284	1020.10370	65.44238	775.73688	879.41132	24.26005	783.77899	802.27600	52.85048	723.31476	789.69812	15.12199	812.16162	719.23273	32.84696
14	0.05200	660.22479	1420.89600	229.70580	701.52295	1368.28210	391.17322	720.71930	1357.86206	71.97919	776.37848	1269.86548	235.72484	681.79102	1164.08057	469.98773	670.36829	1076.28369	494.23007	620.01636	1042.04224	426.63806	716.32239	898.97406	486.59744	739.75775	833.12848	459.96753	674.18573	813.50983	487.86713	776.74817	760.69006	490.37021	741.50854	1163.66003	17.63359	760.70654	1052.90588	22.45000	681.54279	1019.99475	65.18848	775.99927	879.42102	24.28976	784.07721	802.32092	52.94944	723.68683	789.62317	15.05362	812.65369	719.34851	33.06993
15	0.05600	660.23102	1420.91357	229.64589	701.55542	1368.29883	391.11417	720.69806	1357.79333	71.92249	776.33911	1269.84216	235.67155	681.84735	1164.07202	469.90274	670.41394	1076.27771	494.17096	619.97125	1042.04565	426.63397	716.28229	898.96027	486.56628	739.67340	833.11212	459.92935	674.06952	813.50055	487.83267	776.55347	760.51569	490.28278	741.50659	1163.63879	17.46886	760.80640	1052.88245	22.33277	681.56757	1019.88745	64.95471	776.26648	879.44055	24.31310	784.37250	802.36542	53.04764	724.06409	789.54590	14.99876	813.15637	719.46289	33.30273
16	0.06000	660.23004	1420.91968	229.59039	701.57715	1368.31995	391.05237	720.67651	1357.71704	71.86515	776.28613	1269.81946	235.61891	681.90967	1164.08948	469.83994	670.46411	1076.29346	494.12552	619.94073	1042.06628	426.64169	716.23450	898.95258	486.53476	739.59375	833.10510	459.89041	673.96301	813.51923	487.84827	776.36975	760.36072	490.23465	741.50092	1163.61694	17.30151	760.90277	1052.86377	22.21066	681.63354	1019.78815	64.75703	776.53979	879.46533	24.32823	784.66888	802.41528	53.14442	724.45551	789.48389	14.96421	813.66223	719.58685	33.52985
17	0.06400	660.22668	1420.92493	229.53206	701.59045	1368.34265	390.98822	720.66046	1357.64526	71.79992	776.22437	1269.79333	235.57076	681.97760	1164.12439	469.79861	670.52673	1076.32935	494.09421	619.93561	1042.10950	426.66260	716.18433	898.94818	486.51138	739.50934	833.09235	459.85901	673.86987	813.56238	487.90854	776.19446	760.22540	490.21677	741.48840	1163.59338	17.13238	761.00018	1052.84021	22.08674	681.73456	1019.72162	64.56837	776.81055	879.47620	24.35140	784.97308	802.46539	53.24108	724.87213	789.44257	14.95216	814.17346	719.71295	33.76394
18	0.06800	660.22156	1420.93750	229.47911	701.60486	1368.36218	390.93369	720.64691	1357.57483	71.73560	776.15997	1269.76367	235.52635	682.04755	1164.16638	469.77560	670.59503	1076.37830	494.07883	619.94806	1042.16492	426.69141	716.13202	898.93616	486.49768	739.42255	833.06848	459.84018	673.78741	813.63586	487.99954	776.04340	760.12311	490.21429	741.48145	1163.56152	16.96944	761.09961	1052.80969	21.96593	681.87891	1019.67883	64.38586	777.07434	879.47614	24.38721	785.27405	802.50452	53.34094	725.31659	789.40680	14.96827	814.68750	719.83630	34.00274
